# xmcd
#
# Track frame offsets:
#	150
#	16961
#	49004
#	71337
#	99451
#	132786
#
# Disc length: 2693 seconds
#
# Revision: 0
# Processed by: cddbd v1.5.2PL0 Copyright (c) Steve Scherf et al.
# Submitted via: audiograbber 1.83.01
#
DISCID=440a8306
DTITLE=Hodgson and Lee Blues Project, The - Live Blues In The USA [CD1]
DYEAR=2010
DGENRE=Blues
TTITLE0=Muddy Waters
TTITLE1=Caveman
TTITLE2=Rolling and Tumbling
TTITLE3=King Bee
TTITLE4=Love Jones
TTITLE5=Starless Night
EXTD=
EXTT0=
EXTT1=
EXTT2=
EXTT3=
EXTT4=
EXTT5=
PLAYORDER=
